<svg xmlns="http://www.w3.org/2000/svg" viewBox="0 0 152.54 113.29"><defs><style>.cls-1{fill:#fc0;}</style></defs><g id="Layer_2" data-name="Layer 2"><g id="Image_197" data-name="Image 197"><g id="e1"><g id="e_copy_12" data-name="e copy 12"><path d="M87.73,14Q74.43,0,51.53,0A51.62,51.62,0,0,0,32.41,3.68,48,48,0,0,0,16,14.52,53.65,53.65,0,0,0,4.4,32.41Q0,43.15,0,57.46A70.09,70.09,0,0,0,3.37,79.55,46.69,46.69,0,0,0,13.8,97.23,49.22,49.22,0,0,0,31.59,109q10.74,4.29,25.26,4.3a107.27,107.27,0,0,0,11.45-.62Q74,112.06,79,111.14a83.9,83.9,0,0,0,9.1-2.15,42.25,42.25,0,0,0,6.55-2.45L90.59,81.8A62.11,62.11,0,0,1,77.4,85.58a88.28,88.28,0,0,1-16.46,1.53q-13.09,0-20.86-5.52a20.23,20.23,0,0,1-8.79-14.93H100.4c.14-1.63.28-3.51.41-5.62s.21-4,.21-5.83Q101,28,87.73,14ZM31.29,45.81a43.33,43.33,0,0,1,1.94-7.67A20.63,20.63,0,0,1,37,31.49a18.17,18.17,0,0,1,6.14-4.6,20.39,20.39,0,0,1,8.79-1.74A19.45,19.45,0,0,1,60.84,27a18.63,18.63,0,0,1,5.93,4.71,19,19,0,0,1,3.47,6.54,31.62,31.62,0,0,1,1.33,7.57Z"/></g><g id="Rectangle_6_copy_28" data-name="Rectangle 6 copy 28"><polygon class="cls-1" points="122.43 36.19 122.43 69.3 152.54 66.3 152.54 36.19 122.43 36.19"/></g></g></g></g></svg>