<svg xmlns="http://www.w3.org/2000/svg" width="152.5399932861328" height="113.29000091552734" style=""><rect id="backgroundrect" width="100%" height="100%" x="0" y="0" fill="none" stroke="none"/><defs><style>.cls-1{fill:#fc0;}</style></defs><g class="currentLayer" style=""><title>Layer 1</title><g id="Layer_2" data-name="Layer 2" class="selected" fill="#ffffff" fill-opacity="1"><g id="Image_197" data-name="Image 197" fill="#ffffff" fill-opacity="1"><g id="e1" fill="#ffffff" fill-opacity="1"><g id="e_copy_12" data-name="e copy 12" fill="#ffffff" fill-opacity="1"><path d="M87.73,13.61685824394226 Q74.43,-0.38314175605773926 51.53,-0.38314175605773926 A51.62,51.62 0 0 0 32.41,3.296858243942261 A48,48 0 0 0 16,14.13685824394226 A53.65,53.65 0 0 0 4.4,32.02685824394226 Q0,42.76685824394226 0,57.07685824394226 A70.09,70.09 0 0 0 3.37,79.16685824394226 A46.69,46.69 0 0 0 13.8,96.84685824394226 A49.22,49.22 0 0 0 31.59,108.61685824394226 q10.74,4.29 25.26,4.3 a107.27,107.27 0 0 0 11.45,-0.6200000000000001 Q74,111.67685824394226 79,110.75685824394226 a83.9,83.9 0 0 0 9.1,-2.15 a42.25,42.25 0 0 0 6.55,-2.45 L90.59,81.41685824394226 A62.11,62.11 0 0 1 77.4,85.19685824394226 a88.28,88.28 0 0 1 -16.46,1.53 q-13.09,0 -20.86,-5.52 a20.23,20.23 0 0 1 -8.79,-14.93 H100.4 c0.14,-1.6300000000000001 0.28,-3.51 0.41000000000000003,-5.62 s0.21000000000000002,-4 0.21000000000000002,-5.83 Q101,27.61685824394226 87.73,13.61685824394226 zM31.29,45.42685824394226 a43.33,43.33 0 0 1 1.94,-7.67 A20.63,20.63 0 0 1 37,31.10685824394226 a18.17,18.17 0 0 1 6.14,-4.6 a20.39,20.39 0 0 1 8.79,-1.7400000000000002 A19.45,19.45 0 0 1 60.84,26.61685824394226 a18.63,18.63 0 0 1 5.93,4.71 a19,19 0 0 1 3.47,6.54 a31.62,31.62 0 0 1 1.33,7.57 z" id="svg_1" fill="#ffffff" fill-opacity="1"/></g><g id="Rectangle_6_copy_28" data-name="Rectangle 6 copy 28" fill="#ffffff" fill-opacity="1"><defs transform="translate(0,-0.38314175605773926) "><style>.cls-1{fill:#fc0;}</style></defs><polygon class="cls-1" points="122.43000030517578,35.806856870651245 122.43000030517578,68.91686129570007 152.5399932861328,65.91686129570007 152.5399932861328,35.806856870651245 122.43000030517578,35.806856870651245 " id="svg_2" fill="#ffffff" fill-opacity="1"/></g></g></g></g></g></svg>